<svg width="20" height="20" viewBox="0 0 20 20" fill="none" xmlns="http://www.w3.org/2000/svg">
<path d="M14.1667 17.0834H5.83332C3.33332 17.0834 1.66666 15.8334 1.66666 12.9167V7.08341C1.66666 4.16675 3.33332 2.91675 5.83332 2.91675H14.1667C16.6667 2.91675 18.3333 4.16675 18.3333 7.08341V12.9167C18.3333 15.8334 16.6667 17.0834 14.1667 17.0834Z" stroke="#100A55" stroke-width="2" stroke-miterlimit="10" stroke-linecap="round" stroke-linejoin="round"/>
<path d="M10 12.5C11.3807 12.5 12.5 11.3807 12.5 10C12.5 8.61929 11.3807 7.5 10 7.5C8.61929 7.5 7.5 8.61929 7.5 10C7.5 11.3807 8.61929 12.5 10 12.5Z" stroke="#100A55" stroke-width="2" stroke-miterlimit="10" stroke-linecap="round" stroke-linejoin="round"/>
<path d="M4.58334 7.91675V12.0834" stroke="#100A55" stroke-width="2" stroke-miterlimit="10" stroke-linecap="round" stroke-linejoin="round"/>
<path d="M15.4167 7.91675V12.0834" stroke="#100A55" stroke-width="2" stroke-miterlimit="10" stroke-linecap="round" stroke-linejoin="round"/>
</svg>
