<svg width="20" height="20" viewBox="0 0 20 20" fill="none" xmlns="http://www.w3.org/2000/svg">
<g clip-path="url(#clip0_29244_53)">
<path d="M17.2604 6.56848L11.7052 2.25163C11.2177 1.87272 10.6177 1.66699 10 1.66699C9.38234 1.66699 8.78231 1.87272 8.2948 2.25163L2.73855 6.56848C2.40463 6.82791 2.13448 7.16015 1.94871 7.53982C1.76294 7.91949 1.66647 8.33656 1.66667 8.75916V16.2522C1.66667 16.8043 1.88617 17.3337 2.27687 17.724C2.66757 18.1144 3.19747 18.3337 3.75001 18.3337H16.25C16.8025 18.3337 17.3324 18.1144 17.7231 17.724C18.1138 17.3337 18.3333 16.8043 18.3333 16.2522V8.75916C18.3333 7.90266 17.9375 7.09403 17.2604 6.56848Z" stroke="#100A55" stroke-width="2" stroke-linecap="round" stroke-linejoin="round"/>
</g>
<defs>
<clipPath id="clip0_29244_53">
<rect width="20" height="20" fill="white"/>
</clipPath>
</defs>
</svg>
